<svg version="1.1" xmlns="http://www.w3.org/2000/svg" 
     xmlns:xlink="http://www.w3.org/1999/xlink"
     viewBox="240 0 257 300"
     width="300px" height="300px"
     xml:space="preserve">
  <g>
    <polygon fill="#FFFFFF" stroke="#FFFFFF" stroke-miterlimit="10" points="368.877,298.109 240.659,224.082 240.658,76.027 368.878,6 497.098,76.027 497.096,224.082"/>
    <g>
      <polygon fill="#008445" points="368.75,21.271 334.427,41.087 368.75,60.904 403.07,41.087"/>
      <polygon fill="#008445" points="330.614,43.288 296.293,63.105 330.614,82.921 364.935,63.105"/>
      <polygon fill="#008445" points="406.885,43.288 372.564,63.105 406.885,82.921 441.207,63.105"/>
      <polygon fill="#008445" points="445.02,65.306 410.699,85.122 445.02,104.939 479.342,85.122"/>
      <polygon fill="#008445" points="292.479,65.306 258.158,85.122 292.479,104.939 326.801,85.122"/>
      <polygon fill="#C3DD89" points="256.251,216.127 290.572,235.941 290.574,196.309 256.251,176.494"/>
      <polygon fill="#C3DD89" points="294.387,238.143 328.709,257.959 328.711,218.326 294.387,198.512"/>
      <polygon fill="#C3DD89" points="256.251,172.092 290.574,191.904 290.574,152.275 256.253,132.46"/>
      <polygon fill="#C3DD89" points="256.253,128.056 290.574,147.869 290.575,108.239 256.253,88.425"/>
      <polygon fill="#C3DD89" points="332.523,260.16 366.844,279.977 366.845,240.344 332.523,220.529"/>
      <polygon fill="#1F3E7C" points="481.251,216.127 446.93,235.941 446.93,196.309 481.251,176.494"/>
      <polygon fill="#1F3E7C" points="443.117,238.143 408.796,257.959 408.794,218.326 443.117,198.512"/>
      <polygon fill="#1F3E7C" points="481.251,172.092 446.93,191.904 446.928,152.275 481.251,132.46"/>
      <polygon fill="#1F3E7C" points="481.251,128.056 446.93,147.869 446.928,108.241 481.251,88.427"/>
      <polygon fill="#1F3E7C" points="404.982,260.16 370.66,279.977 370.658,240.344 404.982,220.529"/>
      <polygon fill="#008445" points="368.752,237.043 403.073,217.229 368.752,197.41 334.43,217.229"/>
      <polygon fill="#008445" points="406.886,215.025 441.208,195.211 406.886,175.393 372.565,195.211"/>
      <polygon fill="#008445" points="330.617,215.025 364.939,195.211 330.617,175.393 296.296,195.211"/>
      <polygon fill="#C3DD89" points="443.114,108.239 408.792,88.425 408.792,128.056 443.114,147.869"/>
      <polygon fill="#C3DD89" points="404.979,86.224 370.657,66.407 370.656,106.038 404.979,125.855"/>
      <polygon fill="#C3DD89" points="443.114,152.275 408.792,132.46 408.792,172.092 443.114,191.904"/>
      <polygon fill="#1F3E7C" points="294.385,108.241 328.707,88.427 328.709,128.056 294.385,147.869"/>
      <polygon fill="#1F3E7C" points="332.521,86.224 366.844,66.407 366.844,106.038 332.521,125.855"/>
      <polygon fill="#1F3E7C" points="294.385,152.275 328.707,132.46 328.709,172.092 294.385,191.904"/>
      <polygon fill="#1F3E7C" points="404.977,172.092 404.977,132.46 370.656,152.277 370.656,191.906"/>
      <polygon fill="#C3DD89" points="332.521,172.092 366.842,191.906 366.842,152.277 332.521,132.46"/>
      <polygon fill="#008445" points="368.75,109.343 334.427,129.157 368.75,148.975 403.07,129.157"/>
    </g>
  </g>
</svg>